<svg width="66" height="59" viewBox="0 0 66 59" fill="none" xmlns="http://www.w3.org/2000/svg">
<path d="M3.312 13.728V48H10.368V23.952H10.464L18.864 48H24.672L33.072 23.712H33.168V48H40.224V13.728H29.616L22.032 37.296H21.936L13.92 13.728H3.312Z" fill="black"/>
<path d="M40.848 41.664V20.064H46.224C48.08 20.064 49.632 20.336 50.88 20.88C52.16 21.392 53.184 22.144 53.952 23.136C54.72 24.128 55.264 25.328 55.584 26.736C55.936 28.112 56.112 29.664 56.112 31.392C56.112 33.28 55.872 34.88 55.392 36.192C54.912 37.504 54.272 38.576 53.472 39.408C52.672 40.208 51.76 40.784 50.736 41.136C49.712 41.488 48.656 41.664 47.568 41.664H40.848ZM33.312 13.728V48H48.096C50.72 48 52.992 47.568 54.912 46.704C56.864 45.808 58.48 44.592 59.76 43.056C61.072 41.52 62.048 39.696 62.688 37.584C63.328 35.472 63.648 33.168 63.648 30.672C63.648 27.824 63.248 25.344 62.448 23.232C61.68 21.12 60.592 19.36 59.184 17.952C57.808 16.544 56.16 15.488 54.24 14.784C52.352 14.08 50.304 13.728 48.096 13.728H33.312Z" fill="black"/>
<path d="M42 10.5V56" stroke="white" stroke-width="3"/>
</svg>
